<svg id="Capa_1" data-name="Capa 1" xmlns="http://www.w3.org/2000/svg" viewBox="0 0 1047.03 235.15"><path d="M99.63,47.15c0,1-.42,1-1.15,1q-8,0-16.09,0a25.2,25.2,0,0,0-7.82,1c-5.06,1.63-7.17,5.5-7.91,10.42a55.11,55.11,0,0,0-.45,8.52c0,5.39,0,10.79,0,16.19,0,1,.24,1.35,1.32,1.34,10,0,20.09,0,30.14,0,1.1,0,1.48.1,1.33,1.41-1,8.74-1.8,17.49-2.69,26.24-.11,1.14-.3,2.28-.33,3.42s-.5,1.21-1.43,1.2c-8.86,0-17.71,0-26.57,0-1.74,0-1.74,0-1.74,1.68q0,47.31,0,94.62c0,1.27-.27,1.61-1.58,1.61-12.05-.06-24.1,0-36.15,0-1.71,0-1.71,0-1.71-1.65q0-47.31,0-94.62c0-1.8.28-1.59-1.65-1.59-7.83,0-15.67,0-23.5,0-1.21,0-1.45-.36-1.44-1.48q.06-14.61,0-29.2c0-1.22.19-1.63,1.55-1.62,7.92.08,15.84,0,23.76.07,1.07,0,1.32-.28,1.31-1.33,0-6.76-.09-13.52,0-20.28.11-7.76,1-15.41,3.75-22.76,4.13-11.09,12-18.15,23.22-21.73a68.31,68.31,0,0,1,15.91-2.84.79.79,0,0,0,0-.22.33.33,0,0,1,0,.21s0,0,0,0a.29.29,0,0,1-.15.2,31.11,31.11,0,0,1-5.17.74c-7.15,1-14,2.82-20.16,6.8A33.23,33.23,0,0,0,31.2,40.77a62.26,62.26,0,0,0-3.76,18.67c-.44,6.92-.1,13.85-.23,20.77,0,1,0,2,0,2.94,0,2.71-.1,2.82-2.77,2.82H2.59C.7,86,.64,86,.64,87.89v27.54c0,1.82,0,1.87,1.85,1.87q10.86,0,21.72,0l1.4,0c1,0,1.58.47,1.59,1.54,0,.6,0,1.19,0,1.79v91.94c0,2.91-.16,2.66,2.73,2.66H63.15c.43,0,.86,0,1.28,0,1,.06,1.38-.44,1.33-1.38,0-.47,0-.94,0-1.41V120.65c0-3.27.08-3.34,3.37-3.35q12.07,0,24.14,0c2.18,0,2.19-.06,2.41-2.15.83-7.9,1.58-15.81,2.43-23.71.16-1.43.3-2.87.41-4.31.07-.85-.26-1.18-1.07-1.16-.42,0-.85,0-1.28,0H67.93c-1.9,0-2.14-.26-2.17-2.12,0-1.24,0-2.47,0-3.7,0-4.85,0-9.69,0-14.54a39.28,39.28,0,0,1,.62-6.84c1.23-6.62,5.15-10.14,11.87-10.84,3.75-.39,7.49-.2,11.23-.25,2.73,0,5.45,0,8.18,0,1.39,0,1.54-.15,1.55-1.54,0-3.32,0-6.63,0-9.95q0-8.16,0-16.32c0-1.57,0-1.63-1.61-1.84-3.46-.46-6.94-.64-10.42-.91a3.39,3.39,0,0,1-1.48-.24.32.32,0,0,1-.16-.21h0a.29.29,0,0,1,0-.2c0,.07,0,.14,0,.21,4.39.18,8.75.57,13.11,1,.72.08.91.33.91,1Q99.59,32.93,99.63,47.15Z" style="fill:#fdfdfd"/><path d="M229.32,85.55q-17.7,0-35.39,0c-1.09,0-1.23.38-1.22,1.31,0,5.53,0,11.05,0,16.58a2.75,2.75,0,0,1-.19,1.52c-.28-.53-.47-.91-.67-1.28a36.84,36.84,0,0,0-23.27-19.09,53.69,53.69,0,0,0-24.79-.77c-13.16,2.42-23.6,9.08-31,20.3-6.65,10.08-9.63,21.39-10.54,33.26a163.77,163.77,0,0,0,.19,28.53,72.2,72.2,0,0,0,6.7,24.82c4.84,10,11.91,17.89,22.09,22.64a54.39,54.39,0,0,0,35,3.88c11.82-2.48,20.61-9.13,26-20.07.08-.16.09-.43.39-.45a2.1,2.1,0,0,1,.11,1.21c0,5.49,0,11,0,16.45,0,.93.14,1.32,1.23,1.32q17.69-.06,35.38,0c.94,0,1.21-.22,1.21-1.18q0-63.9,0-127.78C230.53,85.75,230.25,85.55,229.32,85.55Zm-39,80.79c-1,5.17-2.68,10-6.23,14-5.16,5.83-11.92,7.51-19.39,7.11A23.45,23.45,0,0,1,151.38,183c-4.63-3.51-7.08-8.37-8.53-13.82a38.7,38.7,0,0,1-1.42-9.43c-.15-9.24-.91-18.53,1.42-27.64,1.51-5.92,4.27-11.1,9.54-14.57a24,24,0,0,1,13.06-3.73c13-.3,21.34,6.11,24.38,18.74a46.93,46.93,0,0,1,1.26,10.22c0,2.63,0,5.27,0,7.9C191.08,155.93,191.31,161.16,190.34,166.34Z" style="fill:#fdfdfd"/><path d="M286.14,134.28c-1.36,5.41-1.41,10.93-1.32,16.61a60,60,0,0,0,1.6,17.17c3,11,11.07,17.95,22.33,19.3a59.74,59.74,0,0,0,31.73-5c1-.42,1.32-.37,1.65.7q3.93,12.77,8,25.5a1.29,1.29,0,0,1-.67,1.81,49.63,49.63,0,0,1-16.07,5.94c-15.8,3.21-31.58,3.13-47.14-1.26-20.34-5.76-33.17-19-38.41-39.53a83.92,83.92,0,0,1-2.47-18.65,135.81,135.81,0,0,1,.91-23.16c1.93-13,6.5-24.78,16.11-34.16,7.35-7.16,16.27-11.47,26.14-13.94a101.21,101.21,0,0,1,32.82-2.38,76.27,76.27,0,0,1,22.47,4.89,40.37,40.37,0,0,1,5.7,2.84,1.18,1.18,0,0,1,.66,1.63q-4.11,12.92-8.11,25.87c-.35,1.12-.85.81-1.56.49a60.83,60.83,0,0,0-26.13-5.47,34.78,34.78,0,0,0-14.28,2.89C292.33,119.9,288.16,126.24,286.14,134.28Z" style="fill:#fdfdfd"/><path d="M478,141A75.45,75.45,0,0,0,474,116.85c-4.78-13.57-13.52-23.5-27-29.08a64.14,64.14,0,0,0-20.95-4.58c-11-.66-21.78.1-32.31,3.42-10,3.15-18.65,8.42-25.32,16.62-8.18,10.06-11.6,21.85-12.51,34.53-.49,7-.3,13.94-.18,20.9a79.84,79.84,0,0,0,3,21c4.52,15.48,14.08,26.51,29,32.8,10.35,4.36,21.27,5.87,32.39,6.19a150.33,150.33,0,0,0,36.75-3.54A76.69,76.69,0,0,0,474,209.58c.66-.32.85-.62.65-1.35q-3.4-12.54-6.71-25.09c-.26-1-.65-.82-1.31-.54a77.62,77.62,0,0,1-8.54,3,118.43,118.43,0,0,1-29.56,4.53,59.4,59.4,0,0,1-16.6-1.48c-7.67-2-13-6.48-15.27-14.21a44.26,44.26,0,0,1-1.49-8.64c-.11-1.21.22-1.38,1.31-1.38,13.37,0,26.75,0,40.12,0s26.83,0,40.24,0c1,0,1.28-.21,1.27-1.24C478,155.78,478.14,148.38,478,141Zm-36.39-2.35H396.3c-.62,0-1.28.19-1.23-.89a45.29,45.29,0,0,1,2.06-13.28c3.11-8.93,9.62-13.46,18.85-14.4a30.87,30.87,0,0,1,12.75,1.08c7.3,2.36,11.26,7.68,13,14.9a49.46,49.46,0,0,1,1,11.77C442.79,138.81,442.2,138.64,441.63,138.64Z" style="fill:#fdfdfd"/><path d="M623.69,135.83a72,72,0,0,0-6.65-25c-5.12-10.63-12.73-18.83-23.69-23.6a55.21,55.21,0,0,0-28.84-4,39.31,39.31,0,0,0-24.18,11.44A48.56,48.56,0,0,0,534,103V19.19c0-2.48,0-2.49-2.52-2.27Q513.77,18.49,496.09,20c-1.27.11-1.64.51-1.64,1.82q.06,72.24,0,144.48,0,24,0,48.07c0,.94.14,1.33,1.22,1.33q17.44-.08,34.88,0c1,0,1.18-.3,1.18-1.22,0-5.66,0-11.31,0-17,0-.34,0-.69.08-1.23,5.38,11,14.17,17.46,25.6,20.5a55.72,55.72,0,0,0,24.81.59c12.14-2.27,22.07-8.17,29.45-18.14s10.76-21.4,12-33.53A157.41,157.41,0,0,0,623.69,135.83Zm-39.1,25a37.45,37.45,0,0,1-3.78,14.44c-3.82,7.39-10.07,11.14-18.2,12.05a29,29,0,0,1-11.75-.89c-7.9-2.37-12.56-7.9-15.06-15.51a42.87,42.87,0,0,1-1.89-13.69v-7.42c.07-4.26-.24-9.2.6-14.09a30.81,30.81,0,0,1,4.59-12.31,20.79,20.79,0,0,1,13-8.94,29.8,29.8,0,0,1,15.76.55c8.3,2.58,12.83,8.65,15.17,16.67a44.35,44.35,0,0,1,1.72,11.94C584.86,149.37,585.06,155.12,584.59,160.84Z" style="fill:#fdfdfd"/><path d="M767.25,146.17a79.6,79.6,0,0,0-2.78-20.65c-5.35-19-17.06-32.32-36-38.69-14.84-5-30-5.33-45.22-2-22,4.9-36.41,18.2-42.8,39.9a80.84,80.84,0,0,0-3,24.79c0,12.05.59,18.12,2.61,25.55,5.66,20.81,18.71,34.5,39.59,40.36a86,86,0,0,0,41.44,1c10.94-2.29,20.68-7,28.69-14.91,9.6-9.5,14.45-21.3,16.5-34.43C767.38,160.19,767.35,153.18,767.25,146.17Zm-39.41,4.42c0,5.31.14,10.63-.92,15.88s-2.93,10.13-6.67,14.09c-5.39,5.7-12.28,7.27-19.8,6.92a24,24,0,0,1-12.31-3.72c-5.54-3.66-8.42-9.08-10-15.31a44,44,0,0,1-1.31-10.85c0-5.19-.09-10.37,0-15.56a37.07,37.07,0,0,1,3.56-15.65c3.87-7.82,10.34-11.79,18.93-12.52A29.53,29.53,0,0,1,712,115.28c7.06,2.53,11.28,7.75,13.67,14.65a47.52,47.52,0,0,1,2.21,15.44C727.85,147.11,727.84,148.85,727.84,150.59Z" style="fill:#fdfdfd"/><path d="M909.85,139.86a67.75,67.75,0,0,0-6.19-24.56c-7.37-15.6-19.73-25.23-36.23-29.71a87.66,87.66,0,0,0-34.32-2,64.74,64.74,0,0,0-23.91,7.58c-13.06,7.35-21.25,18.51-25.56,32.69-2.65,8.7-3.41,17.64-3.27,26.78-.16,9.35.64,18.67,3.57,27.71,6,18.5,18.23,30.85,36.87,36.59,14.21,4.37,28.67,4.54,43.16,1.54a56.23,56.23,0,0,0,27-13.31c11.56-10.49,16.88-24,18.61-39.14A133,133,0,0,0,909.85,139.86Zm-39.34,21.92a33.47,33.47,0,0,1-4.72,15.43,20.92,20.92,0,0,1-14,9.64,29.64,29.64,0,0,1-15.63-.7c-8-2.66-12.43-8.66-14.7-16.48a43,43,0,0,1-1.62-11.83c0-2.42,0-4.85,0-7.27,0-5.27-.23-10.54.84-15.75a30.54,30.54,0,0,1,4.86-11.94,20.43,20.43,0,0,1,11-7.9,29.55,29.55,0,0,1,17.61.06c8,2.53,12.48,8.43,14.84,16.19a39.92,39.92,0,0,1,1.71,11.05C870.78,148.78,871,155.29,870.51,161.78Z" style="fill:#fdfdfd"/><path d="M1046.83,215.65c-13.67,0-27.34,0-41,0-1,0-1.24-.55-1.62-1.15q-19.43-30.56-38.86-61.1a2.61,2.61,0,0,0-1-1.16v1.43q0,30.22,0,60.45c0,1.21-.28,1.54-1.52,1.53q-18.27-.07-36.54,0c-1.06,0-1.43-.17-1.43-1.35q.06-96.42,0-192.83c0-1.09.37-1.35,1.33-1.43q9-.76,18.06-1.59,9.29-.84,18.56-1.7c1.51-.14,1.51-.18,1.51,1.39V145.84a2.65,2.65,0,0,0,0,1.13c.23.46.32,0,.42-.17-.52-.5-.28-1.13-.28-1.69q0-64.34,0-128.67a2,2,0,0,1,.41,1.44c0,.55,0,1.1,0,1.66q0,62.76,0,125.54c0,.37,0,.73,0,1.1a3,3,0,0,0,0,.42.59.59,0,0,0,0,.13c0,.3-.06.62-.47.62s-.42-.25-.49-.5a6.54,6.54,0,0,1-.14-2q0-24.75,0-49.48V19.6c0-2.38,0-2.43-2.29-2.24-5.21.41-10.42.94-15.63,1.4s-10.59,1-15.9,1.41c-1.14.09-2.28.25-3.43.3a1.21,1.21,0,0,0-1.29,1.4c0,.43,0,.85,0,1.28V212.78c0,2.47,0,2.47,2.53,2.47h34.24c1.68,0,1.76-.09,1.77-1.83,0-1.41,0-2.81,0-4.21q0-27.22,0-54.46a8.15,8.15,0,0,1,.11-2c.17-.64.53-.72,1-.29a7.8,7.8,0,0,1,1.22,1.63c5.11,8.09,10.27,16.15,15.4,24.23,7.54,11.88,15.12,23.74,22.63,35.65a2.84,2.84,0,0,0,2.79,1.32h37.56A3.2,3.2,0,0,1,1046.83,215.65Z" style="fill:#fdfdfd"/><path d="M1046.83,215.4v.25c-13.67,0-27.34,0-41,0-1,0-1.24-.55-1.62-1.15q-19.43-30.56-38.86-61.1a2.61,2.61,0,0,0-1-1.16v1.43q0,30.22,0,60.45c0,1.21-.28,1.54-1.52,1.53q-18.27-.07-36.54,0c-1.06,0-1.43-.17-1.43-1.35q.06-96.42,0-192.83c0-1.09.37-1.35,1.33-1.43q9-.76,18.06-1.59,9.29-.84,18.56-1.7c1.51-.14,1.51-.18,1.51,1.39V145.84a2.65,2.65,0,0,0,0,1.13c.23.46.32,0,.42-.17a1.08,1.08,0,0,1,.11-.62,3.83,3.83,0,0,1,.25-.44q8.29-13.25,16.58-26.48c6.78-10.85,13.63-21.66,20.37-32.53a2.8,2.8,0,0,1,2.67-1.51q19.21,0,38.44,0h.51c1.51.06,1.72.41.94,1.66-2.6,4.14-5.23,8.26-7.85,12.39l-17.37,27.34q-6.93,10.94-13.89,21.84a2.21,2.21,0,0,0,0,2.77c4.24,6.42,8.35,12.92,12.52,19.39q10.07,15.59,20.09,31.2c2.55,4,5.13,7.92,7.68,11.89C1046.29,214.26,1046.52,214.84,1046.83,215.4Z" style="fill:#1876f1"/><path d="M66.66,59.54a55.11,55.11,0,0,0-.45,8.52c0,5.39,0,10.79,0,16.19,0,1,.24,1.35,1.32,1.34,10,0,20.09,0,30.14,0,1.1,0,1.48.1,1.33,1.41-1,8.74-1.8,17.49-2.69,26.24-.11,1.14-.3,2.28-.33,3.42s-.5,1.21-1.43,1.2c-8.86,0-17.71,0-26.57,0-1.74,0-1.74,0-1.74,1.68q0,47.31,0,94.62c0,1.27-.27,1.61-1.58,1.61-12.05-.06-24.1,0-36.15,0-1.71,0-1.71,0-1.71-1.65q0-47.31,0-94.62c0-1.8.28-1.59-1.65-1.59-7.83,0-15.67,0-23.5,0-1.21,0-1.45-.36-1.44-1.48q.06-14.61,0-29.2c0-1.22.19-1.63,1.55-1.62,7.92.08,15.84,0,23.76.07,1.07,0,1.32-.28,1.31-1.33,0-6.76-.09-13.52,0-20.28.11-7.76,1-15.41,3.75-22.76,4.13-11.09,12-18.15,23.22-21.73a68.31,68.31,0,0,1,15.91-2.84h0a5.21,5.21,0,0,1,1.42-.07h.07a8.6,8.6,0,0,0,2.32-.14H80a17.72,17.72,0,0,0,3.34.14h.07a14.4,14.4,0,0,1,2.18.06h0c4.39.18,8.75.57,13.11,1,.72.08.91.33.91,1q0,14.22,0,28.44c0,1-.42,1-1.15,1q-8,0-16.09,0a25.2,25.2,0,0,0-7.82,1C69.51,50.75,67.4,54.62,66.66,59.54Z" style="fill:#1876f1"/><path d="M1046.83,215.4c-.47-.14-.57-.6-.79-.94q-20.47-31.77-41-63.53a1.72,1.72,0,0,1,0-2.22q19.68-30.92,39.31-61.86c.22-.35.43-.72.68-1.13a2.17,2.17,0,0,0-1.26-.15q-19.62,0-39.22,0a2.05,2.05,0,0,0-2,1.14q-18.45,29.5-36.94,59c-.21.32-.43.63-.65.94l-.14.2c-.52-.5-.28-1.13-.28-1.69q0-64.34,0-128.67a2,2,0,0,1,.41,1.44c0,.55,0,1.1,0,1.66q0,62.76,0,125.54c0,.37,0,.73,0,1.1a3.83,3.83,0,0,1,.25-.44q8.29-13.25,16.58-26.48c6.78-10.85,13.63-21.66,20.37-32.53a2.8,2.8,0,0,1,2.67-1.51q19.21,0,38.44,0h.51c1.51.06,1.72.41.94,1.66-2.6,4.14-5.23,8.26-7.85,12.39l-17.37,27.34q-6.93,10.94-13.89,21.84a2.21,2.21,0,0,0,0,2.77c4.24,6.42,8.35,12.92,12.52,19.39q10.07,15.59,20.09,31.2c2.55,4,5.13,7.92,7.68,11.89C1046.29,214.26,1046.52,214.84,1046.83,215.4Z" style="fill:#fefefe"/><path d="M83.3,16.67C82.18,16.62,81,17,80,16.45h3.32c.08,0,.11.08.09.14S83.32,16.67,83.3,16.67Z" style="fill:#4f97f4"/><path d="M73.56,16.45a4.18,4.18,0,0,1-2.32.22c-.07-.06-.08-.11-.06-.16s.06-.06.08-.06Z" style="fill:#6da9f6"/><path d="M85.6,16.65h0l-2.24,0a.28.28,0,0,1,0-.09.32.32,0,0,1,0-.14h2.3C85.59,16.51,85.59,16.58,85.6,16.65Z" style="fill:#9fc6f9"/><path d="M71.27,16.44a.34.34,0,0,1,0,.14.28.28,0,0,1,0,.09H69.72a.79.79,0,0,0,0-.22Z" style="fill:#bad6fa"/><path d="M623.69,135.83a72,72,0,0,0-6.65-25c-5.12-10.63-12.73-18.83-23.69-23.6a55.21,55.21,0,0,0-28.84-4,39.31,39.31,0,0,0-24.18,11.44A48.56,48.56,0,0,0,534,103V19.19c0-2.48,0-2.49-2.52-2.27Q513.77,18.49,496.09,20c-1.27.11-1.64.51-1.64,1.82q.06,72.24,0,144.48,0,24,0,48.07c0,.94.14,1.33,1.22,1.33q17.44-.08,34.88,0c1,0,1.18-.3,1.18-1.22,0-5.66,0-11.31,0-17,0-.34,0-.69.08-1.23,5.38,11,14.17,17.46,25.6,20.5a55.72,55.72,0,0,0,24.81.59c12.14-2.27,22.07-8.17,29.45-18.14s10.76-21.4,12-33.53A157.41,157.41,0,0,0,623.69,135.83Zm-39.1,25a37.45,37.45,0,0,1-3.78,14.44c-3.82,7.39-10.07,11.14-18.2,12.05a29,29,0,0,1-11.75-.89c-7.9-2.37-12.56-7.9-15.06-15.51a42.87,42.87,0,0,1-1.89-13.69v-7.42c.07-4.26-.24-9.2.6-14.09a30.81,30.81,0,0,1,4.59-12.31,20.79,20.79,0,0,1,13-8.94,29.8,29.8,0,0,1,15.76.55c8.3,2.58,12.83,8.65,15.17,16.67a44.35,44.35,0,0,1,1.72,11.94C584.86,149.37,585.06,155.12,584.59,160.84Z" style="fill:#1876f1"/><path d="M229.32,85.55q-17.7,0-35.39,0c-1.09,0-1.23.38-1.22,1.31,0,5.53,0,11.05,0,16.58a2.75,2.75,0,0,1-.19,1.52c-.28-.53-.47-.91-.67-1.28a36.84,36.84,0,0,0-23.27-19.09,53.69,53.69,0,0,0-24.79-.77c-13.16,2.42-23.6,9.08-31,20.3-6.65,10.08-9.63,21.39-10.54,33.26a163.77,163.77,0,0,0,.19,28.53,72.2,72.2,0,0,0,6.7,24.82c4.84,10,11.91,17.89,22.09,22.64a54.39,54.39,0,0,0,35,3.88c11.82-2.48,20.61-9.13,26-20.07.08-.16.09-.43.39-.45a2.1,2.1,0,0,1,.11,1.21c0,5.49,0,11,0,16.45,0,.93.14,1.32,1.23,1.32q17.69-.06,35.38,0c.94,0,1.21-.22,1.21-1.18q0-63.9,0-127.78C230.53,85.75,230.25,85.55,229.32,85.55Zm-39,80.79c-1,5.17-2.68,10-6.23,14-5.16,5.83-11.92,7.51-19.39,7.11A23.45,23.45,0,0,1,151.38,183c-4.63-3.51-7.08-8.37-8.53-13.82a38.7,38.7,0,0,1-1.42-9.43c-.15-9.24-.91-18.53,1.42-27.64,1.51-5.92,4.27-11.1,9.54-14.57a24,24,0,0,1,13.06-3.73c13-.3,21.34,6.11,24.38,18.74a46.93,46.93,0,0,1,1.26,10.22c0,2.63,0,5.27,0,7.9C191.08,155.93,191.31,161.16,190.34,166.34Z" style="fill:#1876f1"/><path d="M909.85,139.86a67.75,67.75,0,0,0-6.19-24.56c-7.37-15.6-19.73-25.23-36.23-29.71a87.66,87.66,0,0,0-34.32-2,64.74,64.74,0,0,0-23.91,7.58c-13.06,7.35-21.25,18.51-25.56,32.69-2.65,8.7-3.41,17.64-3.27,26.78-.16,9.35.64,18.67,3.57,27.71,6,18.5,18.23,30.85,36.87,36.59,14.21,4.37,28.67,4.54,43.16,1.54a56.23,56.23,0,0,0,27-13.31c11.56-10.49,16.88-24,18.61-39.14A133,133,0,0,0,909.85,139.86Zm-39.34,21.92a33.47,33.47,0,0,1-4.72,15.43,20.92,20.92,0,0,1-14,9.64,29.64,29.64,0,0,1-15.63-.7c-8-2.66-12.43-8.66-14.7-16.48a43,43,0,0,1-1.62-11.83c0-2.42,0-4.85,0-7.27,0-5.27-.23-10.54.84-15.75a30.54,30.54,0,0,1,4.86-11.94,20.43,20.43,0,0,1,11-7.9,29.55,29.55,0,0,1,17.61.06c8,2.53,12.48,8.43,14.84,16.19a39.92,39.92,0,0,1,1.71,11.05C870.78,148.78,871,155.29,870.51,161.78Z" style="fill:#1876f1"/><path d="M767.25,146.17a79.6,79.6,0,0,0-2.78-20.65c-5.35-19-17.06-32.32-36-38.69-14.84-5-30-5.33-45.22-2-22,4.9-36.41,18.2-42.8,39.9a80.84,80.84,0,0,0-3,24.79c0,12.05.59,18.12,2.61,25.55,5.66,20.81,18.71,34.5,39.59,40.36a86,86,0,0,0,41.44,1c10.94-2.29,20.68-7,28.69-14.91,9.6-9.5,14.45-21.3,16.5-34.43C767.38,160.19,767.35,153.18,767.25,146.17Zm-39.41,4.42c0,5.31.14,10.63-.92,15.88s-2.93,10.13-6.67,14.09c-5.39,5.7-12.28,7.27-19.8,6.92a24,24,0,0,1-12.31-3.72c-5.54-3.66-8.42-9.08-10-15.31a44,44,0,0,1-1.31-10.85c0-5.19-.09-10.37,0-15.56a37.07,37.07,0,0,1,3.56-15.65c3.87-7.82,10.34-11.79,18.93-12.52A29.53,29.53,0,0,1,712,115.28c7.06,2.53,11.28,7.75,13.67,14.65a47.52,47.52,0,0,1,2.21,15.44C727.85,147.11,727.84,148.85,727.84,150.59Z" style="fill:#1876f1"/><path d="M478,141A75.45,75.45,0,0,0,474,116.85c-4.78-13.57-13.52-23.5-27-29.08a64.14,64.14,0,0,0-20.95-4.58c-11-.66-21.78.1-32.31,3.42-10,3.15-18.65,8.42-25.32,16.62-8.18,10.06-11.6,21.85-12.51,34.53-.49,7-.3,13.94-.18,20.9a79.84,79.84,0,0,0,3,21c4.52,15.48,14.08,26.51,29,32.8,10.35,4.36,21.27,5.87,32.39,6.19a150.33,150.33,0,0,0,36.75-3.54A76.69,76.69,0,0,0,474,209.58c.66-.32.85-.62.65-1.35q-3.4-12.54-6.71-25.09c-.26-1-.65-.82-1.31-.54a77.62,77.62,0,0,1-8.54,3,118.43,118.43,0,0,1-29.56,4.53,59.4,59.4,0,0,1-16.6-1.48c-7.67-2-13-6.48-15.27-14.21a44.26,44.26,0,0,1-1.49-8.64c-.11-1.21.22-1.38,1.31-1.38,13.37,0,26.75,0,40.12,0s26.83,0,40.24,0c1,0,1.28-.21,1.27-1.24C478,155.78,478.14,148.38,478,141Zm-36.39-2.35H396.3c-.62,0-1.28.19-1.23-.89a45.29,45.29,0,0,1,2.06-13.28c3.11-8.93,9.62-13.46,18.85-14.4a30.87,30.87,0,0,1,12.75,1.08c7.3,2.36,11.26,7.68,13,14.9a49.46,49.46,0,0,1,1,11.77C442.79,138.81,442.2,138.64,441.63,138.64Z" style="fill:#1876f1"/><path d="M350.13,208.54a1.29,1.29,0,0,1-.67,1.81,49.63,49.63,0,0,1-16.07,5.94c-15.8,3.21-31.58,3.13-47.14-1.26-20.34-5.76-33.17-19-38.41-39.53a83.92,83.92,0,0,1-2.47-18.65,135.81,135.81,0,0,1,.91-23.16c1.93-13,6.5-24.78,16.11-34.16,7.35-7.16,16.27-11.47,26.14-13.94a101.21,101.21,0,0,1,32.82-2.38,76.27,76.27,0,0,1,22.47,4.89,40.37,40.37,0,0,1,5.7,2.84,1.18,1.18,0,0,1,.66,1.63q-4.11,12.92-8.11,25.87c-.35,1.12-.85.81-1.56.49a60.83,60.83,0,0,0-26.13-5.47,34.78,34.78,0,0,0-14.28,2.89c-7.77,3.55-11.94,9.89-14,17.93-1.36,5.41-1.41,10.93-1.32,16.61a60,60,0,0,0,1.6,17.17c3,11,11.07,17.95,22.33,19.3a59.74,59.74,0,0,0,31.73-5c1-.42,1.32-.37,1.65.7Q346.06,195.81,350.13,208.54Z" style="fill:#1876f1"/></svg>