<svg id="Capa_1" data-name="Capa 1" xmlns="http://www.w3.org/2000/svg" xmlns:xlink="http://www.w3.org/1999/xlink" viewBox="0 0 1047.03 235.15"><defs><radialGradient id="Degradado_sin_nombre_2" cx="38.98" cy="443.53" r="340.05" gradientTransform="matrix(1, -0.05, -0.04, -0.85, -14.92, 592.13)" gradientUnits="userSpaceOnUse"><stop offset="0" stop-color="#fed576"/><stop offset="0.26" stop-color="#f47133"/><stop offset="0.61" stop-color="#bc3081"/><stop offset="1" stop-color="#4c63d2"/></radialGradient><radialGradient id="Degradado_sin_nombre_2-2" cx="73.92" cy="271.97" r="174.62" gradientTransform="matrix(1, -0.05, -0.04, -0.85, -2.3, 401.62)" xlink:href="#Degradado_sin_nombre_2"/></defs><path d="M1044.22,129.26c-2.88-.55-3.58,2.06-4.06,4.1-1,4.38-2,8.77-4,12.83-1.22,2.49-2.9,4.56-6,4.45-2.88-.1-4.45-2.09-5.59-4.39a36.39,36.39,0,0,1-3.33-14c-1-15.49-.44-31,.22-46.45.23-5.22-1.81-8.52-6.41-10.68a42.52,42.52,0,0,0-7.91-3c-5.77-1.43-8.43-.31-10.79,5.06a171.54,171.54,0,0,0-8,22.54c-2,7-3.65,14.16-5.69,22.16-1.35-12.14-1.61-23.3-1.94-34.45-.3-10.09-3.6-13.91-13.55-15.81-3.87-.75-6.83.26-8.8,3.89a118.11,118.11,0,0,0-6.16,14.69c-1.93,5.08-2.9,10.56-5.92,15.25-.38-8.25-.57-16.4-.31-24.54.16-5-1.87-7.51-6.72-8-1.48-.16-2.94-.54-4.42-.81-6.28-1.11-7.3-.31-7.37,6.18-.15,15.83-.14,31.66-.41,47.49a36.62,36.62,0,0,1-8.15,22.59c-4,5-9.45,4-11.65-1.72a34.86,34.86,0,0,1-2.08-9.71c-1.38-18.16.11-36.3.26-54.45.05-6-1.68-7.81-9.19-9.17-6.81-1.23-8.34-.44-10.38,5.4-12.82-14.37-29-9.65-37,1.85a55.5,55.5,0,0,0-7.59,15.08c-4.09,13.15-4.26,26.55-2.54,40.05.83,6.58-3.13,14.37-8.14,15.53s-8.77-2.56-10.8-11.19a59.59,59.59,0,0,1-1.57-12.36c-.24-12.29,2.91-24.06,5.29-35.95,2-9.83-2.93-14.64-12.9-12.93-4.6.79-9.18,1.63-13.74,2.6-3.06.65-4.71.82-4.07-3.52,1.05-7.1-4-11.41-11.06-10.12-10,1.85-15.26,14.92-8.57,22.64,2.72,3.13,2.53,5.56,1.46,8.87A136.44,136.44,0,0,1,761,129.62c-1.84,3-3.22,6.35-6.59,8.93.12-19.13-.2-37.61.59-56.08.09-1.94.79-4.33-.93-5.71-3.94-3.17-8.71-3.87-13.63-3.79-3.83.07-4,3.34-4.64,6.4-12.56-15-30.49-10.9-39.1,3.6-9.21,15.52-10.66,32.38-8.93,49.7.58,5.83-1.3,10.37-4.13,14.91-1.71,2.75-4.17,4.27-7.57,3.66s-4.66-3.08-5.47-5.86a59.57,59.57,0,0,1-2.33-16.27c-.14-15.16.08-30.31.85-45.46.35-6.9-1.22-8.68-8.57-10.24a16.7,16.7,0,0,0-7.44-.22c-2.78.67-2.65,3.52-3.52,6.12-5.21-6.41-11.13-9.78-19-9.42-9.17.42-14.95,5.8-19.65,12.81-7.72,11.54-9.3,24.69-9.87,38.14A36.9,36.9,0,0,1,590.59,145c-5.64,6-10.07,4.79-12.54-3.16A52.28,52.28,0,0,1,576,125.09c.4-17.82,1-35.63,1.28-53.45.06-3,1-4,4-4,6.16.13,12.33-.08,18.49-.3,4-.13,5.81-2.94,6-8.07.11-3.94-2.45-4.1-5.28-4.21s-5.65-.3-8.47-.55c-4.45-.39-10.27,1.45-13-1.34-3-3-.69-8.83-.66-13.4.11-12.56-.3-13.18-13-15.29-.49-.08-1-.14-1.48-.21-3.67-.51-5.79,1-6,4.77-.24,3.65-.41,7.31-.66,11-.28,4.12,1.53,9.43-1,12s-7.89.21-12,.36c-.33,0-.66,0-1,0-7.3-.26-10.19,2.79-10.08,10.33,0,2.92,1.07,4.27,4.1,4.25,4.66,0,9.34.38,14,.15,3.59-.19,4.91.64,4.8,4.59-.38,12.82,0,25.66-.52,38.47-.48,11.14-6.22,20-14.61,28.74,1.58-13.62-5-21.88-14.25-28.73-4.41-3.26-8.64-6.8-13.18-9.88-2.49-1.7-2.42-2.88-.61-5a39.59,39.59,0,0,0,7-12.61c2.84-8-.6-12.77-9-12.78-7.81,0-13.23,4-17,10.37-4,6.66-4.62,13.57.19,20.14,1.55,2.11,1.44,3.63.28,5.78-4.66,8.64-9.43,17.21-14.57,25.57-2.36,3.84-4.62,7.74-7.84,10.91s-5.27,2.63-6.6-1.77a32.28,32.28,0,0,1-1-8.91c-.31-14.66.42-29.3,1.15-43.95.15-3.2.34-6.6-2.18-8.93C454.4,71,445.51,68,436,77a50.92,50.92,0,0,0-11.31,16.9c-3.15,7.22-5.89,14.62-8.81,21.93-.7-11.2-.73-22.26-.7-33.32,0-7.17-.63-8.11-7.55-10a42.74,42.74,0,0,0-4.88-1c-3.44-.5-5.34.63-5.33,4.53,0,24.83-.06,49.65-.08,74.48a16.13,16.13,0,0,0,1.92,8.18c2,3.54,7.26,5,13,4.1,4.33-.69,3.79-3.87,4.14-6.78.22-1.81.62-3.6,1-5.39,4.38-20.27,10.19-40,22.3-57.23,1.62-2.31,3-5,5.16-5.77,0,13.3,0,26.57,0,39.83,0,8.64-.44,17.38,2.39,25.73,3.39,10,11,12.54,20,6.8,7.49-4.79,12.64-11.76,17.21-19.15,6.2-10,12.17-20.19,18.45-30.64,6,5.41,12.29,10.12,16.53,16.82,3.25,5.15,4.55,10.73,1.92,16.62-2.21,5-6.36,6.61-11.49,4.84-3.22-1.1-5.84-3.14-8.52-5.11-2-1.46-4.22-2.49-6.44-.87-3.64,2.66-6.19,6.41-6.31,10.86-.11,4.24,4,5.52,7.18,6.63,21.16,7.36,41.65,2.72,54.7-19.78,1.83-3.14,3.51-6.37,5.72-10.41a58,58,0,0,0,3.47,16.67c3.09,8.14,7.71,14.79,17.23,16.17,9,1.31,14.11-4.3,19-10.5,2.83-3.62,4.4-8,7-12.11,3.72,11.8,9.21,21.62,22.63,22.72,12.83,1.05,21.12-6.69,28-17.34,2.43,9.86,7.59,15.94,17,17.17,10.62,1.4,16.56-5.15,21.35-14.06,4.86,8.7,11.37,14.45,21.47,14.38,9.85-.06,17-5.44,23.28-13,1.38,5.24.42,8.63-3.4,11.91-7.58,6.49-14.76,13.46-21.83,20.5-6.18,6.17-11.5,13.07-12.86,22-2.35,15.5,12.75,28,29.46,24.37,12.68-2.78,19.81-11.33,23.46-23.36,4.69-15.47,3.5-31.32,3.13-47.12a10,10,0,0,1,2.42-7.26c12.41-14.57,21.69-31,29.12-48.6,4.16-9.83,4.19-9.72,15-9.27,2.73.11,2.93,1,2.35,3.31-.77,3.06-1.24,6.2-1.75,9.32-2.15,13.08-3.3,26.2,1,39.05,3.2,9.67,9.57,16.59,20.08,17.89,9.38,1.16,15.07-4.74,19.45-12.19a10.73,10.73,0,0,1,.81-1c5.39,9.39,13.07,14.72,24.23,13.14,10.49-1.49,17.15-8.42,22.74-17.32,2.8,9.89,8.22,16.44,18.26,17.53,9.61,1,14.83-5.11,18.89-13.62.31,2,.52,3.11.66,4.24.89,7.29,1.81,8.27,9,9.23a26.87,26.87,0,0,0,4.48.24c7.14-.22,8.11-1.13,8.14-8.15.06-14.72,1.16-29.29,6.21-43.28,2.12-5.88,3.89-12,8.86-17.93.33,7.54.36,13.7.92,19.81,1,11.25,1.22,22.64,4.63,33.55,2.15,6.88,8,10.37,14.64,9,2.67-.57,4.54-1.77,4.55-5,.06-11.73,2.3-23.16,5.28-34.44A83.16,83.16,0,0,1,1003,94.79c.41,12.27-.14,24.44,1.09,36.56.8,7.81,2,15.54,6.57,22.25,8.08,12,23.35,12.41,30.62.86,3.82-6.08,5-13,5.68-20C1047.18,132.39,1046.87,129.77,1044.22,129.26ZM650.1,112.57c-.09,7.85-.77,15.62-3.25,23.14a32.68,32.68,0,0,1-4,8.55c-2.66,3.79-5.84,7.14-11,6.51s-7.29-4.7-8.52-8.84a72.4,72.4,0,0,1,2.11-48.41c2.49-6.32,7.35-9.47,12.47-9,6.17.59,8.61,5.16,10.26,10.23C650,100.54,650.19,106.56,650.1,112.57Zm86.11-1.22c-.15,9.71-1.4,19.23-5.05,28.32a18.64,18.64,0,0,1-1.49,3.16c-2.75,4.31-5.86,8.59-11.65,8s-7.84-5.28-9.12-10.06c-4.31-16.09-3.64-31.94,3.16-47.3a17.87,17.87,0,0,1,3.35-4.92c6.49-6.85,15.39-4.9,18.4,4A53.22,53.22,0,0,1,736.21,111.35ZM734,211.24c-1.48,4.26-4,7.56-8.62,8.95-6.93,2.09-12.81-2-13.05-9.31-.17-5,1.64-9.5,4-13.7,5.47-9.75,13.15-17.67,21.85-26C738.3,185.32,738.41,198.51,734,211.24Zm147.07-70.07a19.17,19.17,0,0,1-1.67,3.05c-2.8,3.9-6,7.47-11.39,6.54-5.09-.88-7.17-5.16-8.52-9.5-3.26-10.52-3-21.32-1.71-32.09.66-5.58,1.52-11.19,4.28-16.28,2.59-4.78,5.88-8.64,11.87-8.33s8.69,4.62,10.47,9.83c2,5.94,2.09,12.06,2.09,19.27A60.68,60.68,0,0,1,881.05,141.17Z" style="fill:#272727"/><path d="M379.41,89.42c0,17.16.12,34.31-.05,51.47-.1,10.15-2.3,19.82-8.16,28.36A27,27,0,0,1,359.43,179c-3.61,1.55-5.61.1-4.44-3.37,5.72-16.83,4.26-34.23,4.45-51.49.3-27.32.43-54.64.56-82,0-1.7,1-4.22-1.06-4.92-1.87-.63-3,1.76-4.17,3C341.86,54,336.34,80.56,343.19,95.76c.75,1.66,1.76,3.19,2.62,4.8s2.37,3.54.78,5.49-3.46.57-5.09,0c-9.63-3.11-17.81-14-18.35-24.65-.63-12.53,4.21-23.36,10.85-33.58a65.42,65.42,0,0,1,22.18-21.14,17.66,17.66,0,0,1,14.87-1.55c7,2.14,8.58,4.08,8.6,11.27,0,17.65,0,35.31,0,53Z" style="fill:#262626"/><g id="Symbol"><path d="M40.59,6.17A57.6,57.6,0,0,0,19.74,19.74,57.42,57.42,0,0,0,6.17,40.54C3.25,48,1.29,56.55.72,69.08S0,85.62,0,117.55.14,153.5.72,166s2.58,21.08,5.45,28.54a57.65,57.65,0,0,0,13.57,20.84A57.76,57.76,0,0,0,40.59,229c7.45,2.91,16,4.87,28.54,5.45s16.54.71,48.47.71,36-.14,48.47-.71,21.09-2.59,28.54-5.45A60.19,60.19,0,0,0,229,194.57c2.92-7.46,4.88-16,5.45-28.54s.72-16.54.72-48.48-.14-35.95-.72-48.47S231.9,48,229,40.54a57.93,57.93,0,0,0-13.52-20.8A57.6,57.6,0,0,0,194.66,6.17c-7.46-2.92-16-4.88-28.54-5.45S149.58,0,117.65,0,81.7.14,69.17.72,48,3.25,40.59,6.17ZM165.12,21.85c11.47.52,17.69,2.43,21.85,4.06a39,39,0,0,1,22.32,22.33c1.63,4.15,3.54,10.37,4.06,21.84.58,12.38.67,16.11.67,47.52s-.14,35.14-.67,47.52c-.52,11.47-2.43,17.69-4.06,21.85A39,39,0,0,1,187,209.29c-4.16,1.63-10.38,3.54-21.85,4.06-12.38.58-16.11.67-47.52.67s-35.14-.14-47.52-.67c-11.47-.52-17.69-2.43-21.84-4.06A39,39,0,0,1,25.91,187c-1.63-4.16-3.54-10.38-4.06-21.85-.58-12.38-.67-16.11-.67-47.52s.14-35.14.67-47.52c.52-11.47,2.43-17.69,4.06-21.84a36.62,36.62,0,0,1,8.8-13.53,36.62,36.62,0,0,1,13.53-8.8c4.15-1.63,10.37-3.54,21.84-4.06,12.38-.58,16.11-.67,47.52-.67S152.74,21.27,165.12,21.85Z" style="fill:url(#Degradado_sin_nombre_2)"/><path d="M57.22,117.6A60.38,60.38,0,1,0,117.6,57.22,60.38,60.38,0,0,0,57.22,117.6Zm99.58,0a39.2,39.2,0,1,1-39.2-39.2A39.19,39.19,0,0,1,156.8,117.6Z" style="fill:url(#Degradado_sin_nombre_2-2)"/><circle cx="180.42" cy="54.83" r="14.1" style="fill:#654c9f"/></g></svg>