<svg id="Capa_1" data-name="Capa 1" xmlns="http://www.w3.org/2000/svg" viewBox="0 0 394.04 458.06"><path d="M108.1,458.06A31.26,31.26,0,0,1,77.73,433.4l-6.65-29.67c-8.23-36.5-13.86-76.88-17.2-123.43-4.48-39.85-14.06-68.1-31-91.57C1.87,159.74-5,124,3.6,88.07,13.44,46.76,45.79,13.12,86,2.37c19.29-5,39.8-1.83,61,9.5l.39.23,86.14,56.54a8.13,8.13,0,0,0,6.33,1.18,8.9,8.9,0,0,0,5.65-3.93,9.23,9.23,0,0,0-2.71-12.53L211.4,32.79l7.67-3.91c.9-.46,1.82-.9,2.75-1.33a31.13,31.13,0,0,0,5.53-3C255.74,3.16,282.88-4.3,308,2.36c40.26,10.76,72.61,44.4,82.44,85.7,8.56,36.12,1.71,71.87-19.28,100.68-17.05,23.56-26.66,52.62-30.24,91.47-3.08,34-7.92,78.81-18,123.44l-6.75,29.65a30.91,30.91,0,0,1-60.42.62L226.2,312.72a29.92,29.92,0,0,0-58.38.08L138.25,434A31.12,31.12,0,0,1,108.1,458.06ZM104.26,10a61.79,61.79,0,0,0-15.69,2C51.87,21.85,22.32,52.6,13.33,90.39c-7.88,33-1.62,65.89,17.61,92.48,18.07,25,28.21,54.7,32.89,96.41l0,.2c3.3,46.09,8.86,86,17,122.06l6.64,29.65a21,21,0,0,0,41.05.46L158.1,310.44a39.92,39.92,0,0,1,77.82-.1l29.57,121.21a20.91,20.91,0,0,0,40.94-.44l6.76-29.67C323.13,357.39,327.91,313,331,279.3c3.75-40.72,13.95-71.36,32.11-96.43v0c19.25-26.41,25.51-59.25,17.63-92.48-9-37.77-38.54-68.53-75.28-78.35-22.31-5.91-45.9.79-72.09,20.5-.67.49-1.35.95-2,1.37l17,11.12A19.3,19.3,0,0,1,254,71.22a19,19,0,0,1-12,8.38A18.19,18.19,0,0,1,228,77L142.08,20.58C128.82,13.52,116.33,10,104.26,10Z" style="fill:#e7f3f8"/></svg>