<svg id="Capa_1" data-name="Capa 1" xmlns="http://www.w3.org/2000/svg" viewBox="0 0 1047.03 235.15"><path d="M326.85,37.15a42.09,42.09,0,0,0-29.6-29.6C271.3.48,166.86.48,166.86.48S62.41.69,36.46,7.77a42.09,42.09,0,0,0-29.6,29.6C0,63.32,0,117.58,0,117.58S0,171.84,7.08,198a42.07,42.07,0,0,0,29.59,29.6c25.95,7.08,130.4,7.08,130.4,7.08s104.45,0,130.4-7.08A42.07,42.07,0,0,0,327.06,198c7.08-25.95,7.08-80.42,7.08-80.42S333.93,63.32,326.85,37.15Z" style="fill:red"/><polygon points="133.61 167.76 220.26 117.58 133.61 67.39 133.61 167.76" style="fill:#fff"/><path d="M484.7,213.44c-6.65-4.5-11.37-11.36-14.16-20.8s-4.07-21.88-4.07-37.53V133.88c0-15.66,1.5-28.53,4.72-38,3.21-9.66,8.15-16.52,15-20.81s15.66-6.65,26.59-6.65c10.73,0,19.52,2.15,26,6.65s11.37,11.37,14.37,20.81,4.51,22.09,4.51,37.74v21.23c0,15.66-1.5,28.1-4.51,37.54s-7.72,16.3-14.37,20.8c-6.65,4.29-15.65,6.65-26.8,6.65C500.35,220.09,491.35,217.73,484.7,213.44Zm37.1-22.94c1.93-4.72,2.79-12.66,2.79-23.38V121.44c0-10.51-.86-18.23-2.79-23-1.93-4.93-5.15-7.29-9.65-7.29s-7.51,2.36-9.44,7.29-2.79,12.44-2.79,23v45.68c0,10.72.86,18.66,2.58,23.38s4.93,7.07,9.65,7.07Q518.9,197.57,521.8,190.5Z" style="fill:#282828"/><path d="M991.91,155.54V163c0,9.44.22,16.52.86,21.24s1.72,8.15,3.43,10.29,4.51,3.22,8.15,3.22c4.94,0,8.37-1.93,10.08-5.79,1.93-3.86,2.79-10.3,3-19.09l28.52,1.72a35.51,35.51,0,0,1,.21,5.14c0,13.51-3.64,23.59-11.15,30.24s-17.8,10.08-31.31,10.08c-16.3,0-27.67-5.14-34.1-15.22s-9.87-26-9.87-47.19v-26c0-21.87,3.44-38,10.08-48,6.87-10.08,18.45-15.23,34.75-15.23,11.36,0,19.94,2.15,25.95,6.22s10.29,10.51,12.87,19.31,3.64,20.8,3.64,36.24v25.09H991.91Zm4.29-61.77c-1.71,2.15-2.78,5.36-3.43,10.08s-.86,11.8-.86,21.45v10.51h24V125.3c0-9.44-.21-16.52-.85-21.45s-1.72-8.36-3.43-10.29-4.29-3-7.73-3Q998.46,90.88,996.2,93.77Z" style="fill:#282828"/><path d="M404.49,152.75,367,17.21h32.82l13.08,61.33c3.43,15.23,5.79,28.1,7.51,38.61h.86c1.07-7.72,3.64-20.38,7.5-38.39l13.51-61.55h32.82l-38,135.32v65H404.7V152.75Z" style="fill:#282828"/><path d="M664,71.25V217.73H638.26l-2.79-18h-.64c-7.08,13.51-17.59,20.37-31.53,20.37-9.65,0-16.94-3.21-21.45-9.65-4.72-6.43-6.86-16.3-6.86-29.81V71.25h33V178.7c0,6.43.64,11.15,2.14,13.94a7.41,7.41,0,0,0,7.08,4.08,14.61,14.61,0,0,0,8.15-2.58,17.15,17.15,0,0,0,5.79-6.65V71.25Z" style="fill:#282828"/><path d="M833.21,71.25V217.73H807.47l-2.79-18H804c-7.08,13.51-17.59,20.37-31.53,20.37-9.65,0-16.94-3.21-21.44-9.65-4.72-6.43-6.87-16.3-6.87-29.81V71.25h33V178.7c0,6.43.65,11.15,2.15,13.94a7.4,7.4,0,0,0,7.07,4.08,14.59,14.59,0,0,0,8.15-2.58,17,17,0,0,0,5.79-6.65V71.25Z" style="fill:#282828"/><path d="M753.64,43.8H720.83V217.73H688.66V43.8H655.84V17.21h97.59V43.8Z" style="fill:#282828"/><path d="M942.16,94.63c-1.93-9.22-5.15-15.87-9.65-20.16C928,70.39,922,68.25,914.06,68.25a30.19,30.19,0,0,0-16.94,5.15,35.35,35.35,0,0,0-12.23,13.51h-.21V9.7H852.94V217.52h27.24l3.43-13.94h.64a30.07,30.07,0,0,0,11.37,11.79,34.85,34.85,0,0,0,16.94,4.29c11.15,0,19.3-5.14,24.67-15.44,5.14-10.29,7.93-26.38,7.93-48V133C945.16,116.72,944.09,103.85,942.16,94.63Zm-30.24,59.84a187.66,187.66,0,0,1-1.29,25.09q-1.29,9-4.5,12.87a10.41,10.41,0,0,1-8.37,3.86,15.1,15.1,0,0,1-7.5-1.93,14.57,14.57,0,0,1-5.58-5.79V105.35a19.84,19.84,0,0,1,5.79-9.86c2.79-2.58,5.58-3.86,8.79-3.86A8.66,8.66,0,0,1,907,95.49c1.93,2.57,3,7.07,3.86,13.29.64,6.22,1.07,15,1.07,26.6Z" style="fill:#282828"/></svg>